<?xml version="1.0" standalone="no"?><!DOCTYPE svg PUBLIC "-//W3C//DTD SVG 1.1//EN" "http://www.w3.org/Graphics/SVG/1.1/DTD/svg11.dtd"><svg t="1560915366924" class="icon" style="" viewBox="0 0 1024 1024" version="1.1" xmlns="http://www.w3.org/2000/svg" p-id="32097" xmlns:xlink="http://www.w3.org/1999/xlink" width="64" height="64"><defs><style type="text/css"></style></defs><path d="M210.253005 155.339878c6.540186-1.837875 13.403853-1.212621 20.114944-1.269965 201.628262 0.019456 403.255398 0 604.882637 0.019456 9.403597-0.322355 17.746944 6.426317 20.532429 15.243162 38.676378 115.624346 77.123584 231.344947 115.725312 347.008205 1.952563 6.824448 1.081651 13.971149 1.157427 20.966502 0.018432 91.016909-0.038912 182.034944 0.036864 273.033421-0.112538 6.181786-1.345741 13.044122-6.199398 17.347072-4.416819 4.873011-11.432858 5.669069-17.632256 5.896294-279.321805-0.057344-558.660096-0.037888-837.980877-0.02048-8.455885 0.02048-18.599322 0.85545-25.007514-5.779661-7.015014-6.294323-6.371328-16.608256-6.332518-25.177395 0-90.980147 0.170906-181.960192-0.075776-272.940339-0.871936-9.175962 2.654515-17.781965 5.5936-26.256998 37.083034-111.321395 74.222387-222.643814 111.288115-333.984666C198.422118 162.980966 203.559322 157.046784 210.253005 155.339878zM229.475635 192.971981c-34.504192 103.511552-69.010534 207.041434-103.514726 310.572442 86.641766 0.018432 173.302989 0.036864 259.944755 0 5.971251 0.131994 12.664934 0.852378 17.043866 5.421466 6.048973 4.928205 6.786867 13.365453 7.09079 20.625715 1.477734 34.370765 19.754701 67.358106 47.586714 87.434342 21.252915 15.621837 47.985766 23.565722 74.317619 22.124954 30.999245-1.346662 61.142016-15.907328 81.505587-39.300096 17.593446-19.830682 28.133888-45.842022 28.874752-72.364134 0.322355-6.293299 1.252557-13.383782 6.23831-17.819853 4.397363-5.062246 11.526963-5.971968 17.819546-6.123418 86.644838 0.036864 173.285581 0 259.907891 0-34.504192-103.511552-69.00951-207.042458-103.496294-310.572442C625.014989 192.934195 427.235533 192.934195 229.475635 192.971981zM118.471987 542.389146c-0.018432 84.117811-0.018432 168.23255 0 252.350362 271.775642 0.021504 543.53193 0.021504 815.308595 0 0.018432-84.116787 0.018432-168.231526 0-252.350362-84.558234-0.019456-169.115443-0.019456-253.671629 0-5.479014 46.370099-33.481933 89.310106-73.521459 113.272832-31.227494 19.188019-69.408563 26.427904-105.525658 20.457984-34.732442-5.479834-67.266765-23.47264-90.62359-49.710182-20.911104-23.241318-34.505216-52.968346-38.296781-84.020634C287.585382 542.370714 203.028173 542.370714 118.471987 542.389146z" p-id="32098"></path></svg>
