<?xml version="1.0" standalone="no"?><!DOCTYPE svg PUBLIC "-//W3C//DTD SVG 1.1//EN" "http://www.w3.org/Graphics/SVG/1.1/DTD/svg11.dtd"><svg class="icon" width="32px" height="32.00px" viewBox="0 0 1024 1024" version="1.1" xmlns="http://www.w3.org/2000/svg"><path d="M226.5088 592.0768H68.130133c-33.314133 0-33.314133-33.109333-33.314133-33.109333L68.130133 33.5872c0-33.109333 33.3824-33.109333 33.3824-33.109333h137.557334c29.149867 0 29.149867 20.6848 29.149866 20.6848v529.544533c-4.164267 41.3696-41.642667 41.3696-41.642666 41.3696zM926.788267 592.0768H664.1664c100.078933 372.3264-70.8608 393.0112-70.8608 393.0112-75.025067 0-58.299733-57.890133-62.464-66.218667 0-181.998933-195.925333-326.792533-195.925333-326.792533V70.792533C334.916267 21.162667 405.777067 0.477867 434.858667 0.477867h391.850666c37.546667 0 66.628267 95.163733 66.628267 95.163733 95.914667 330.9568 95.914667 430.2848 95.914667 430.2848 4.096 70.314667-62.532267 66.218667-62.532267 66.218667z" /></svg>
