<?xml version="1.0" standalone="no"?><!DOCTYPE svg PUBLIC "-//W3C//DTD SVG 1.1//EN" "http://www.w3.org/Graphics/SVG/1.1/DTD/svg11.dtd"><svg t="1561001916321" class="icon" style="" viewBox="0 0 1024 1024" version="1.1" xmlns="http://www.w3.org/2000/svg" p-id="3610" xmlns:xlink="http://www.w3.org/1999/xlink" width="32" height="32"><defs><style type="text/css"></style></defs><path d="M537.5 611.3L323.1 338.8 71.5 764.6V155.1h773.8v282.2c24.2 4.2 47.3 11.4 68.9 21.4V121.9v-0.8c0-19.3-15.6-34.9-34.9-34.9H34.9C15.6 86.2 0 101.8 0 121.1V860.1C0 879.4 15.6 895 34.9 895H587.6c-42.7-48.5-68.8-112.6-68.8-182.8v-0.4c0-35.5 6.6-69.3 18.7-100.5z" p-id="3611" fill="#ffffff"></path><path d="M839.8 630.1V630.4l-0.1 0.2v0.2l-0.1 0.2S812 759.3 812 759.6c0 0 1.9-9.6 0 0-1.9 9.7-6.7 15-15 15s-12.6-6.1-15.2-16.1c-2.6-10-26.9-124.7-26.9-124.8v-0.2l-0.1-0.2v-0.7l-0.1-0.1V632.2l-0.1-0.2v-0.4l-0.1-0.2V630.6l-0.1-0.2v-0.4c-0.6-2.7-0.9-5.7-0.9-8.9 0-24.1 19.6-43.7 43.7-43.7s43.7 19.6 43.7 43.7c0 3.1-0.3 6.2-1 9.2l-0.1-0.2zM797 872.9c-18.1 0-32.7-14.6-32.7-32.6s14.6-32.6 32.6-32.6 32.6 14.6 32.6 32.6c0.1 18-14.5 32.6-32.5 32.6z m0.7-387.2c-125 0-226.2 101.2-226.3 226.1 0.1 124.9 101.3 226.1 226.2 226.1h0.2c124.9 0 226.1-101.2 226.2-226.1-0.1-124.9-101.3-226.1-226.3-226.1 0.1 0 0 0 0 0z" p-id="3612" fill="#ffffff"></path></svg>