<?xml version="1.0" standalone="no"?><!DOCTYPE svg PUBLIC "-//W3C//DTD SVG 1.1//EN" "http://www.w3.org/Graphics/SVG/1.1/DTD/svg11.dtd"><svg class="icon" width="64px" height="64.00px" viewBox="0 0 1024 1024" version="1.1" xmlns="http://www.w3.org/2000/svg"><path d="M977.460966 50.511448H46.539034A46.662621 46.662621 0 0 0 0 97.050483V702.146207a46.662621 46.662621 0 0 0 46.539034 46.539034h93.095725v175.333518a23.181241 23.181241 0 0 0 39.565241 16.525241l192.088276-191.858759h606.17269A46.662621 46.662621 0 0 0 1024 702.146207V97.050483a46.662621 46.662621 0 0 0-46.539034-46.539035z"  /><path d="M232.730483 399.589517m-69.826207 0a69.826207 69.826207 0 1 0 139.652414 0 69.826207 69.826207 0 1 0-139.652414 0Z"  /><path d="M512 399.589517m-69.826207 0a69.826207 69.826207 0 1 0 139.652414 0 69.826207 69.826207 0 1 0-139.652414 0Z"  /><path d="M791.269517 399.589517m-69.826207 0a69.826207 69.826207 0 1 0 139.652414 0 69.826207 69.826207 0 1 0-139.652414 0Z"  /></svg>
