<?xml version="1.0" standalone="no"?><!DOCTYPE svg PUBLIC "-//W3C//DTD SVG 1.1//EN" "http://www.w3.org/Graphics/SVG/1.1/DTD/svg11.dtd"><svg t="1560934181008" class="icon" style="" viewBox="0 0 1092 1024" version="1.1" xmlns="http://www.w3.org/2000/svg" p-id="32971" xmlns:xlink="http://www.w3.org/1999/xlink" width="68.25" height="64"><defs><style type="text/css"></style></defs><path d="M885.781974 918.181784a40.286123 40.286123 0 0 1-36.831283-23.109586 39.504816 39.504816 0 0 1 6.103958-42.727706h0.207535c81.097186-91.09547 156.358989-195.167954 156.358989-340.600858s-75.054268-249.529804-156.322365-340.429948a39.30949 39.30949 0 0 1 2.905484-55.521602l0.500524-0.451693v-0.170911a40.957558 40.957558 0 0 1 57.072008 3.735623c87.457511 97.663329 176.465427 220.706915 176.465427 392.765283s-88.739342 295.30949-176.221269 392.862947a40.457034 40.457034 0 0 1-30.348879 13.648451h0.073248zM748.088889 783.320935a40.371578 40.371578 0 0 1-35.805818-21.705675 39.590272 39.590272 0 0 1 3.003147-41.409251L731.254173 698.707868c41.848736-55.839008 78.130663-104.145732 78.130662-186.878779 0-85.736195-31.948116-127.41402-72.563853-180.225465-7.20267-9.278016-14.258846-18.592656-21.363853-28.46886a39.358321 39.358321 0 0 1 8.545541-54.996662l0.41507-0.29299a40.945351 40.945351 0 0 1 56.583691 9.180353c6.555651 9.119313 13.428708 18.018884 20.204101 26.759752a336.413543 336.413543 0 0 1 88.971292 228.214783c0 108.955651-49.79609 175.342299-93.756795 234.184454l-15.46743 20.753457a42.17835 42.17835 0 0 1-32.961373 16.517311zM121.468765 352.491369a40.176252 40.176252 0 0 0-40.286123 39.810014V631.027182a40.005341 40.005341 0 0 0 40.103004 39.797806h121.517597a40.945351 40.945351 0 0 1 28.737434 11.634144l242.93753 238.933333c4.199523 4.199523 8.264759 7.605532 11.780639 10.645303V91.412876a133.981879 133.981879 0 0 0-11.988174 10.791797L271.443014 340.893848a40.957558 40.957558 0 0 1-28.810682 11.634144H121.468765zM544.27773 1024a132.126276 132.126276 0 0 1-87.176729-46.390081L226.017358 750.420601H121.371102A120.492132 120.492132 0 0 1 0 631.027182V392.533333a120.455508 120.455508 0 0 1 121.371102-119.466666h104.646256l230.912733-227.067239A130.86886 130.86886 0 0 1 543.935908 0a64.445589 64.445589 0 0 1 63.664283 65.190272 65.922747 65.922747 0 0 1-0.720267 8.899571v875.307582a64.494421 64.494421 0 0 1-53.568336 73.796853 65.922747 65.922747 0 0 1-9.033858 0.793514z" p-id="32972"></path></svg>
