<?xml version="1.0" standalone="no"?><!DOCTYPE svg PUBLIC "-//W3C//DTD SVG 1.1//EN" "http://www.w3.org/Graphics/SVG/1.1/DTD/svg11.dtd"><svg class="icon" width="32px" height="32.00px" viewBox="0 0 1024 1024" version="1.1" xmlns="http://www.w3.org/2000/svg"><path d="M956.051445 410.568866c-3.504824-10.878768-13.527085-18.304901-24.968671-18.575054l-151.944598-3.060709-44.670385-0.887206-44.659129-0.955768-38.131459-0.724501-17.86181-0.376577-9.442046-26.90272-88.104617-250.873748c-3.78828-10.664897-13.900591-17.877159-25.278733-17.877159-11.376095 0-21.516036 7.212262-25.302269 17.877159l-88.082104 250.873748-9.466606 26.90272-17.890462 0.376577-38.131459 0.724501-44.629453 0.955768-44.657082 0.887206-151.956877 3.060709c-11.444657 0.26913-21.47715 7.695263-24.968671 18.575054-3.51915 10.894118 0.254803 22.765493 9.428743 29.642111l236.691747 177.612187L226.00229 899.049197c-3.304256 10.921747 0.630357 22.686698 9.818623 29.454846 2.336208 1.721201 4.860704 2.954285 7.520277 3.814886 0.846274 0.309038 1.74576 0.268106 2.645247 0.496304 1.814322 0.348947 3.613294 0.805342 5.466502 0.833995 0.080841 0 0.147356 0.011256 0.201591 0.011256 1.706875 0 3.358491-0.388856 5.063319-0.737804 0.900509-0.172939 1.826602-0.107447 2.701528-0.402159 2.604314-0.807389 5.116531-1.962701 7.41283-3.560082l244.158812-168.142511 244.146533 168.142511c4.593622 3.155876 9.870812 4.699022 15.190981 4.699022 5.559623 0 11.119245-1.690502 15.848966-5.155417 9.200546-6.769171 13.107529-18.588357 9.788947-29.454846l-86.065168-281.227056 236.761332-177.612187C955.781292 433.335383 959.567525 421.462984 956.051445 410.568866z" /></svg>
